<svg width="500" height="500" viewBox="0 0 500 500" fill="none" xmlns="http://www.w3.org/2000/svg">
<path d="M331.6 60.63C331.6 60.63 254.61 33.25 179 76.84C103.39 120.43 65.33 206.94 32.59 276.24C-0.149954 345.54 18.69 416 76.38 448.18C134.07 480.36 173.3 432.94 254.23 430.64C335.16 428.34 356.92 439.9 424.08 394.18C491.24 348.46 503.37 240.49 450.4 160.6C397.43 80.71 331.6 60.63 331.6 60.63Z" fill="#8DAFFF"/>
<path opacity="0.7" d="M331.6 60.63C331.6 60.63 254.61 33.25 179 76.84C103.39 120.43 65.33 206.94 32.59 276.24C-0.149954 345.54 18.69 416 76.38 448.18C134.07 480.36 173.3 432.94 254.23 430.64C335.16 428.34 356.92 439.9 424.08 394.18C491.24 348.46 503.37 240.49 450.4 160.6C397.43 80.71 331.6 60.63 331.6 60.63Z" fill="white"/>
<path d="M336.37 132.15H32.53V432.43H336.37V132.15Z" fill="white" stroke="#263238" stroke-linecap="round" stroke-linejoin="round"/>
<path d="M173.2 163.77H154.12V185.5H173.2V163.77Z" fill="white" stroke="#263238" stroke-linecap="round" stroke-linejoin="round"/>
<path d="M166.5 163.77H154.12V185.5H166.5V163.77Z" fill="white" stroke="#263238" stroke-linecap="round" stroke-linejoin="round"/>
<path d="M164.96 173H155.51V183.2H164.96V173Z" fill="#8DAFFF" stroke="#263238" stroke-linecap="round" stroke-linejoin="round"/>
<path d="M157.08 163.77H138V185.5H157.08V163.77Z" fill="white" stroke="#263238" stroke-linecap="round" stroke-linejoin="round"/>
<path d="M150.38 163.77H138V185.5H150.38V163.77Z" fill="white" stroke="#263238" stroke-linecap="round" stroke-linejoin="round"/>
<path d="M148.84 173H139.39V183.2H148.84V173Z" fill="#8DAFFF" stroke="#263238" stroke-linecap="round" stroke-linejoin="round"/>
<path d="M141.79 153.52H122.71V185.5H141.79V153.52Z" fill="#8DAFFF" stroke="#263238" stroke-linecap="round" stroke-linejoin="round"/>
<path d="M135.09 153.52H122.71V185.5H135.09V153.52Z" fill="white" stroke="#263238" stroke-linecap="round" stroke-linejoin="round"/>
<path d="M133.55 167.11H124.1V182.12H133.55V167.11Z" fill="#8DAFFF" stroke="#263238" stroke-linecap="round" stroke-linejoin="round"/>
<path d="M125.67 153.52H106.59V185.5H125.67V153.52Z" fill="#8DAFFF" stroke="#263238" stroke-linecap="round" stroke-linejoin="round"/>
<path d="M118.97 153.52H106.59V185.5H118.97V153.52Z" fill="#8DAFFF" stroke="#263238" stroke-linecap="round" stroke-linejoin="round"/>
<path d="M117.43 167.11H107.98V182.12H117.43V167.11Z" fill="white" stroke="#263238" stroke-linecap="round" stroke-linejoin="round"/>
<path d="M111.49 163.77H92.4099V185.5H111.49V163.77Z" fill="white" stroke="#263238" stroke-linecap="round" stroke-linejoin="round"/>
<path d="M104.79 163.77H92.4099V185.5H104.79V163.77Z" fill="white" stroke="#263238" stroke-linecap="round" stroke-linejoin="round"/>
<path d="M103.25 173H93.8V183.2H103.25V173Z" fill="#8DAFFF" stroke="#263238" stroke-linecap="round" stroke-linejoin="round"/>
<path d="M95.37 163.77H76.29V185.5H95.37V163.77Z" fill="white" stroke="#263238" stroke-linecap="round" stroke-linejoin="round"/>
<path d="M88.67 163.77H76.29V185.5H88.67V163.77Z" fill="white" stroke="#263238" stroke-linecap="round" stroke-linejoin="round"/>
<path d="M87.1299 173H77.6799V183.2H87.1299V173Z" fill="#8DAFFF" stroke="#263238" stroke-linecap="round" stroke-linejoin="round"/>
<path d="M80.08 153.52H61V185.5H80.08V153.52Z" fill="white" stroke="#263238" stroke-linecap="round" stroke-linejoin="round"/>
<path d="M73.38 153.52H61V185.5H73.38V153.52Z" fill="white" stroke="#263238" stroke-linecap="round" stroke-linejoin="round"/>
<path d="M71.8399 167.11H62.3899V182.12H71.8399V167.11Z" fill="#8DAFFF" stroke="#263238" stroke-linecap="round" stroke-linejoin="round"/>
<path d="M63.9599 153.52H44.8799V185.5H63.9599V153.52Z" fill="white" stroke="#263238" stroke-linecap="round" stroke-linejoin="round"/>
<path d="M57.2599 153.52H44.8799V185.5H57.2599V153.52Z" fill="white" stroke="#263238" stroke-linecap="round" stroke-linejoin="round"/>
<path d="M55.72 167.11H46.27V182.12H55.72V167.11Z" fill="#8DAFFF" stroke="#263238" stroke-linecap="round" stroke-linejoin="round"/>
<path d="M321.63 163.77H302.55V185.5H321.63V163.77Z" fill="white" stroke="#263238" stroke-linecap="round" stroke-linejoin="round"/>
<path d="M314.93 163.77H302.55V185.5H314.93V163.77Z" fill="white" stroke="#263238" stroke-linecap="round" stroke-linejoin="round"/>
<path d="M313.39 173H303.94V183.2H313.39V173Z" fill="#8DAFFF" stroke="#263238" stroke-linecap="round" stroke-linejoin="round"/>
<path d="M305.51 163.77H286.43V185.5H305.51V163.77Z" fill="white" stroke="#263238" stroke-linecap="round" stroke-linejoin="round"/>
<path d="M298.81 163.77H286.43V185.5H298.81V163.77Z" fill="white" stroke="#263238" stroke-linecap="round" stroke-linejoin="round"/>
<path d="M297.27 173H287.82V183.2H297.27V173Z" fill="#8DAFFF" stroke="#263238" stroke-linecap="round" stroke-linejoin="round"/>
<path d="M290.22 153.52H271.14V185.5H290.22V153.52Z" fill="#8DAFFF" stroke="#263238" stroke-linecap="round" stroke-linejoin="round"/>
<path d="M283.52 153.52H271.14V185.5H283.52V153.52Z" fill="white" stroke="#263238" stroke-linecap="round" stroke-linejoin="round"/>
<path d="M281.98 167.11H272.53V182.12H281.98V167.11Z" fill="#8DAFFF" stroke="#263238" stroke-linecap="round" stroke-linejoin="round"/>
<path d="M274.1 153.52H255.02V185.5H274.1V153.52Z" fill="#8DAFFF" stroke="#263238" stroke-linecap="round" stroke-linejoin="round"/>
<path d="M267.4 153.52H255.02V185.5H267.4V153.52Z" fill="#8DAFFF" stroke="#263238" stroke-linecap="round" stroke-linejoin="round"/>
<path d="M265.86 167.11H256.41V182.12H265.86V167.11Z" fill="white" stroke="#263238" stroke-linecap="round" stroke-linejoin="round"/>
<path d="M259.93 163.77H240.85V185.5H259.93V163.77Z" fill="white" stroke="#263238" stroke-linecap="round" stroke-linejoin="round"/>
<path d="M253.23 163.77H240.85V185.5H253.23V163.77Z" fill="white" stroke="#263238" stroke-linecap="round" stroke-linejoin="round"/>
<path d="M251.68 173H242.23V183.2H251.68V173Z" fill="#8DAFFF" stroke="#263238" stroke-linecap="round" stroke-linejoin="round"/>
<path d="M243.8 163.77H224.72V185.5H243.8V163.77Z" fill="white" stroke="#263238" stroke-linecap="round" stroke-linejoin="round"/>
<path d="M237.1 163.77H224.72V185.5H237.1V163.77Z" fill="white" stroke="#263238" stroke-linecap="round" stroke-linejoin="round"/>
<path d="M235.56 173H226.11V183.2H235.56V173Z" fill="#8DAFFF" stroke="#263238" stroke-linecap="round" stroke-linejoin="round"/>
<path d="M228.52 153.52H209.44V185.5H228.52V153.52Z" fill="white" stroke="#263238" stroke-linecap="round" stroke-linejoin="round"/>
<path d="M221.82 153.52H209.44V185.5H221.82V153.52Z" fill="white" stroke="#263238" stroke-linecap="round" stroke-linejoin="round"/>
<path d="M220.27 167.11H210.82V182.12H220.27V167.11Z" fill="#8DAFFF" stroke="#263238" stroke-linecap="round" stroke-linejoin="round"/>
<path d="M212.39 153.52H193.31V185.5H212.39V153.52Z" fill="white" stroke="#263238" stroke-linecap="round" stroke-linejoin="round"/>
<path d="M205.69 153.52H193.31V185.5H205.69V153.52Z" fill="white" stroke="#263238" stroke-linecap="round" stroke-linejoin="round"/>
<path d="M204.15 167.11H194.7V182.12H204.15V167.11Z" fill="#8DAFFF" stroke="#263238" stroke-linecap="round" stroke-linejoin="round"/>
<path d="M173.2 332.38H154.12V354.11H173.2V332.38Z" fill="white" stroke="#263238" stroke-linecap="round" stroke-linejoin="round"/>
<path d="M166.5 332.38H154.12V354.11H166.5V332.38Z" fill="white" stroke="#263238" stroke-linecap="round" stroke-linejoin="round"/>
<path d="M164.96 341.61H155.51V351.81H164.96V341.61Z" fill="#8DAFFF" stroke="#263238" stroke-linecap="round" stroke-linejoin="round"/>
<path d="M157.08 332.38H138V354.11H157.08V332.38Z" fill="white" stroke="#263238" stroke-linecap="round" stroke-linejoin="round"/>
<path d="M150.38 332.38H138V354.11H150.38V332.38Z" fill="white" stroke="#263238" stroke-linecap="round" stroke-linejoin="round"/>
<path d="M148.84 341.61H139.39V351.81H148.84V341.61Z" fill="#8DAFFF" stroke="#263238" stroke-linecap="round" stroke-linejoin="round"/>
<path d="M141.79 322.13H122.71V354.11H141.79V322.13Z" fill="#8DAFFF" stroke="#263238" stroke-linecap="round" stroke-linejoin="round"/>
<path d="M135.09 322.13H122.71V354.11H135.09V322.13Z" fill="white" stroke="#263238" stroke-linecap="round" stroke-linejoin="round"/>
<path d="M133.55 335.71H124.1V350.72H133.55V335.71Z" fill="#8DAFFF" stroke="#263238" stroke-linecap="round" stroke-linejoin="round"/>
<path d="M125.67 322.13H106.59V354.11H125.67V322.13Z" fill="#8DAFFF" stroke="#263238" stroke-linecap="round" stroke-linejoin="round"/>
<path d="M118.97 322.13H106.59V354.11H118.97V322.13Z" fill="#8DAFFF" stroke="#263238" stroke-linecap="round" stroke-linejoin="round"/>
<path d="M117.43 335.71H107.98V350.72H117.43V335.71Z" fill="white" stroke="#263238" stroke-linecap="round" stroke-linejoin="round"/>
<path d="M111.49 332.38H92.4099V354.11H111.49V332.38Z" fill="white" stroke="#263238" stroke-linecap="round" stroke-linejoin="round"/>
<path d="M104.79 332.38H92.4099V354.11H104.79V332.38Z" fill="white" stroke="#263238" stroke-linecap="round" stroke-linejoin="round"/>
<path d="M103.25 341.61H93.8V351.81H103.25V341.61Z" fill="#8DAFFF" stroke="#263238" stroke-linecap="round" stroke-linejoin="round"/>
<path d="M95.37 332.38H76.29V354.11H95.37V332.38Z" fill="white" stroke="#263238" stroke-linecap="round" stroke-linejoin="round"/>
<path d="M88.67 332.38H76.29V354.11H88.67V332.38Z" fill="white" stroke="#263238" stroke-linecap="round" stroke-linejoin="round"/>
<path d="M87.1299 341.61H77.6799V351.81H87.1299V341.61Z" fill="#8DAFFF" stroke="#263238" stroke-linecap="round" stroke-linejoin="round"/>
<path d="M80.08 322.13H61V354.11H80.08V322.13Z" fill="white" stroke="#263238" stroke-linecap="round" stroke-linejoin="round"/>
<path d="M73.38 322.13H61V354.11H73.38V322.13Z" fill="white" stroke="#263238" stroke-linecap="round" stroke-linejoin="round"/>
<path d="M71.8399 335.71H62.3899V350.72H71.8399V335.71Z" fill="#8DAFFF" stroke="#263238" stroke-linecap="round" stroke-linejoin="round"/>
<path d="M63.9599 322.13H44.8799V354.11H63.9599V322.13Z" fill="white" stroke="#263238" stroke-linecap="round" stroke-linejoin="round"/>
<path d="M57.2599 322.13H44.8799V354.11H57.2599V322.13Z" fill="white" stroke="#263238" stroke-linecap="round" stroke-linejoin="round"/>
<path d="M55.72 335.71H46.27V350.72H55.72V335.71Z" fill="#8DAFFF" stroke="#263238" stroke-linecap="round" stroke-linejoin="round"/>
<path d="M321.63 332.38H302.55V354.11H321.63V332.38Z" fill="white" stroke="#263238" stroke-linecap="round" stroke-linejoin="round"/>
<path d="M314.93 332.38H302.55V354.11H314.93V332.38Z" fill="white" stroke="#263238" stroke-linecap="round" stroke-linejoin="round"/>
<path d="M313.39 341.61H303.94V351.81H313.39V341.61Z" fill="#8DAFFF" stroke="#263238" stroke-linecap="round" stroke-linejoin="round"/>
<path d="M305.51 332.38H286.43V354.11H305.51V332.38Z" fill="white" stroke="#263238" stroke-linecap="round" stroke-linejoin="round"/>
<path d="M298.81 332.38H286.43V354.11H298.81V332.38Z" fill="white" stroke="#263238" stroke-linecap="round" stroke-linejoin="round"/>
<path d="M297.27 341.61H287.82V351.81H297.27V341.61Z" fill="#8DAFFF" stroke="#263238" stroke-linecap="round" stroke-linejoin="round"/>
<path d="M290.22 322.13H271.14V354.11H290.22V322.13Z" fill="#8DAFFF" stroke="#263238" stroke-linecap="round" stroke-linejoin="round"/>
<path d="M283.52 322.13H271.14V354.11H283.52V322.13Z" fill="white" stroke="#263238" stroke-linecap="round" stroke-linejoin="round"/>
<path d="M281.98 335.71H272.53V350.72H281.98V335.71Z" fill="#8DAFFF" stroke="#263238" stroke-linecap="round" stroke-linejoin="round"/>
<path d="M274.1 322.13H255.02V354.11H274.1V322.13Z" fill="#8DAFFF" stroke="#263238" stroke-linecap="round" stroke-linejoin="round"/>
<path d="M267.4 322.13H255.02V354.11H267.4V322.13Z" fill="#8DAFFF" stroke="#263238" stroke-linecap="round" stroke-linejoin="round"/>
<path d="M265.86 335.71H256.41V350.72H265.86V335.71Z" fill="white" stroke="#263238" stroke-linecap="round" stroke-linejoin="round"/>
<path d="M259.93 332.38H240.85V354.11H259.93V332.38Z" fill="white" stroke="#263238" stroke-linecap="round" stroke-linejoin="round"/>
<path d="M253.23 332.38H240.85V354.11H253.23V332.38Z" fill="white" stroke="#263238" stroke-linecap="round" stroke-linejoin="round"/>
<path d="M251.68 341.61H242.23V351.81H251.68V341.61Z" fill="#8DAFFF" stroke="#263238" stroke-linecap="round" stroke-linejoin="round"/>
<path d="M243.8 332.38H224.72V354.11H243.8V332.38Z" fill="white" stroke="#263238" stroke-linecap="round" stroke-linejoin="round"/>
<path d="M237.1 332.38H224.72V354.11H237.1V332.38Z" fill="white" stroke="#263238" stroke-linecap="round" stroke-linejoin="round"/>
<path d="M235.56 341.61H226.11V351.81H235.56V341.61Z" fill="#8DAFFF" stroke="#263238" stroke-linecap="round" stroke-linejoin="round"/>
<path d="M228.52 322.13H209.44V354.11H228.52V322.13Z" fill="white" stroke="#263238" stroke-linecap="round" stroke-linejoin="round"/>
<path d="M221.82 322.13H209.44V354.11H221.82V322.13Z" fill="white" stroke="#263238" stroke-linecap="round" stroke-linejoin="round"/>
<path d="M220.27 335.71H210.82V350.72H220.27V335.71Z" fill="#8DAFFF" stroke="#263238" stroke-linecap="round" stroke-linejoin="round"/>
<path d="M212.39 322.13H193.31V354.11H212.39V322.13Z" fill="white" stroke="#263238" stroke-linecap="round" stroke-linejoin="round"/>
<path d="M205.69 322.13H193.31V354.11H205.69V322.13Z" fill="white" stroke="#263238" stroke-linecap="round" stroke-linejoin="round"/>
<path d="M204.15 335.71H194.7V350.72H204.15V335.71Z" fill="#8DAFFF" stroke="#263238" stroke-linecap="round" stroke-linejoin="round"/>
<path d="M45.0001 217.37H51.3901C52.8276 217.37 54.2062 217.941 55.2226 218.957C56.2391 219.974 56.8101 221.353 56.8101 222.79V241.27H39.6001V222.79C39.6001 221.356 40.1684 219.98 41.1805 218.965C42.1926 217.949 43.5661 217.375 45.0001 217.37V217.37Z" fill="#8DAFFF" stroke="#263238" stroke-linecap="round" stroke-linejoin="round"/>
<path d="M52.11 210.7H45.02V217.37H52.11V210.7Z" fill="#263238" stroke="#263238" stroke-linecap="round" stroke-linejoin="round"/>
<path d="M52.11 224.6H40.99V235.72H52.11V224.6Z" fill="white" stroke="#263238" stroke-linecap="round" stroke-linejoin="round"/>
<path d="M65.3099 217.37H71.6999C73.1374 217.37 74.516 217.941 75.5324 218.957C76.5489 219.974 77.1199 221.353 77.1199 222.79V241.27H59.8899V222.79C59.8899 222.078 60.0301 221.373 60.3025 220.716C60.5748 220.058 60.9741 219.461 61.4774 218.957C61.9807 218.454 62.5782 218.055 63.2357 217.783C63.8933 217.51 64.5981 217.37 65.3099 217.37V217.37Z" fill="#8DAFFF" stroke="#263238" stroke-linecap="round" stroke-linejoin="round"/>
<path d="M72.4001 210.7H65.3101V217.37H72.4001V210.7Z" fill="#263238" stroke="#263238" stroke-linecap="round" stroke-linejoin="round"/>
<path d="M72.4 224.6H61.28V235.72H72.4V224.6Z" fill="white" stroke="#263238" stroke-linecap="round" stroke-linejoin="round"/>
<path d="M85.5999 204.58H91.9999C93.4357 204.583 94.8117 205.155 95.826 206.171C96.8403 207.187 97.4099 208.564 97.4099 210V241.27H80.1799V210C80.1799 208.562 80.751 207.184 81.7674 206.167C82.7839 205.151 84.1625 204.58 85.5999 204.58V204.58Z" fill="#8DAFFF" stroke="#263238" stroke-linecap="round" stroke-linejoin="round"/>
<path d="M92.6901 197.91H85.6001V204.58H92.6901V197.91Z" fill="#263238" stroke="#263238" stroke-linecap="round" stroke-linejoin="round"/>
<path d="M92.6901 211.81H81.5701V235.71H92.6901V211.81Z" fill="white" stroke="#263238" stroke-linecap="round" stroke-linejoin="round"/>
<path d="M105.89 217.37H112.28C113.717 217.37 115.096 217.941 116.112 218.957C117.129 219.974 117.7 221.353 117.7 222.79V241.27H100.47V222.79C100.47 221.353 101.041 219.974 102.057 218.957C103.074 217.941 104.452 217.37 105.89 217.37V217.37Z" fill="#8DAFFF" stroke="#263238" stroke-linecap="round" stroke-linejoin="round"/>
<path d="M112.98 210.7H105.89V217.37H112.98V210.7Z" fill="#263238" stroke="#263238" stroke-linecap="round" stroke-linejoin="round"/>
<path d="M112.98 224.6H101.86V235.72H112.98V224.6Z" fill="white" stroke="#263238" stroke-linecap="round" stroke-linejoin="round"/>
<path d="M126.18 217.37H132.57C134.007 217.37 135.386 217.941 136.403 218.957C137.419 219.974 137.99 221.353 137.99 222.79V241.27H120.76V222.79C120.76 221.353 121.331 219.974 122.347 218.957C123.364 217.941 124.743 217.37 126.18 217.37V217.37Z" fill="#8DAFFF" stroke="#263238" stroke-linecap="round" stroke-linejoin="round"/>
<path d="M133.27 210.7H126.18V217.37H133.27V210.7Z" fill="#263238" stroke="#263238" stroke-linecap="round" stroke-linejoin="round"/>
<path d="M133.27 224.6H122.15V235.72H133.27V224.6Z" fill="white" stroke="#263238" stroke-linecap="round" stroke-linejoin="round"/>
<path d="M146.48 210.7H152.87C154.308 210.7 155.686 211.271 156.703 212.287C157.719 213.304 158.29 214.682 158.29 216.12V241.28H141.05V216.12C141.05 215.407 141.191 214.702 141.464 214.044C141.737 213.385 142.137 212.787 142.641 212.284C143.145 211.78 143.744 211.381 144.403 211.11C145.062 210.838 145.767 210.699 146.48 210.7V210.7Z" fill="#8DAFFF" stroke="#263238" stroke-linecap="round" stroke-linejoin="round"/>
<path d="M153.57 204.03H146.48V210.7H153.57V204.03Z" fill="#263238" stroke="#263238" stroke-linecap="round" stroke-linejoin="round"/>
<path d="M153.56 217.92H142.44V235.71H153.56V217.92Z" fill="white" stroke="#263238" stroke-linecap="round" stroke-linejoin="round"/>
<path d="M200.45 217.37H206.84C208.277 217.37 209.656 217.941 210.673 218.957C211.689 219.974 212.26 221.352 212.26 222.79V241.27H195V222.79C195 222.076 195.141 221.368 195.415 220.709C195.69 220.049 196.092 219.45 196.598 218.947C197.105 218.443 197.706 218.044 198.367 217.774C199.028 217.503 199.736 217.366 200.45 217.37V217.37Z" fill="#8DAFFF" stroke="#263238" stroke-linecap="round" stroke-linejoin="round"/>
<path d="M207.54 210.7H200.45V217.37H207.54V210.7Z" fill="#263238" stroke="#263238" stroke-linecap="round" stroke-linejoin="round"/>
<path d="M207.54 224.6H196.42V235.72H207.54V224.6Z" fill="white" stroke="#263238" stroke-linecap="round" stroke-linejoin="round"/>
<path d="M220.74 217.37H227.13C228.568 217.37 229.946 217.941 230.963 218.957C231.979 219.974 232.55 221.353 232.55 222.79V241.27H215.32V222.79C215.32 221.353 215.891 219.974 216.908 218.957C217.924 217.941 219.303 217.37 220.74 217.37V217.37Z" fill="#8DAFFF" stroke="#263238" stroke-linecap="round" stroke-linejoin="round"/>
<path d="M227.83 210.7H220.74V217.37H227.83V210.7Z" fill="#263238" stroke="#263238" stroke-linecap="round" stroke-linejoin="round"/>
<path d="M227.83 224.6H216.71V235.72H227.83V224.6Z" fill="white" stroke="#263238" stroke-linecap="round" stroke-linejoin="round"/>
<path d="M241 204.58H247.39C248.827 204.58 250.206 205.151 251.222 206.167C252.239 207.184 252.81 208.562 252.81 210V241.27H235.62V210C235.62 208.569 236.185 207.197 237.193 206.182C238.201 205.166 239.569 204.591 241 204.58V204.58Z" fill="#8DAFFF" stroke="#263238" stroke-linecap="round" stroke-linejoin="round"/>
<path d="M248.13 197.91H241.04V204.58H248.13V197.91Z" fill="#263238" stroke="#263238" stroke-linecap="round" stroke-linejoin="round"/>
<path d="M248.13 211.81H237.01V235.71H248.13V211.81Z" fill="white" stroke="#263238" stroke-linecap="round" stroke-linejoin="round"/>
<path d="M261.33 217.37H267.72C268.432 217.37 269.136 217.51 269.794 217.783C270.452 218.055 271.049 218.454 271.552 218.957C272.056 219.461 272.455 220.058 272.727 220.716C273 221.373 273.14 222.078 273.14 222.79V241.27H255.91V222.79C255.91 221.353 256.481 219.974 257.497 218.957C258.514 217.941 259.892 217.37 261.33 217.37V217.37Z" fill="#8DAFFF" stroke="#263238" stroke-linecap="round" stroke-linejoin="round"/>
<path d="M268.42 210.7H261.33V217.37H268.42V210.7Z" fill="#263238" stroke="#263238" stroke-linecap="round" stroke-linejoin="round"/>
<path d="M268.42 224.6H257.3V235.72H268.42V224.6Z" fill="white" stroke="#263238" stroke-linecap="round" stroke-linejoin="round"/>
<path d="M281.62 217.37H288C288.712 217.37 289.417 217.51 290.074 217.783C290.732 218.055 291.329 218.454 291.832 218.957C292.336 219.461 292.735 220.058 293.007 220.716C293.28 221.373 293.42 222.078 293.42 222.79V241.27H276.2V222.79C276.2 221.353 276.771 219.974 277.787 218.957C278.804 217.941 280.182 217.37 281.62 217.37V217.37Z" fill="#8DAFFF" stroke="#263238" stroke-linecap="round" stroke-linejoin="round"/>
<path d="M288.71 210.7H281.62V217.37H288.71V210.7Z" fill="#263238" stroke="#263238" stroke-linecap="round" stroke-linejoin="round"/>
<path d="M288.71 224.6H277.59V235.72H288.71V224.6Z" fill="white" stroke="#263238" stroke-linecap="round" stroke-linejoin="round"/>
<path d="M301.91 210.7H308.3C309.737 210.7 311.116 211.271 312.133 212.287C313.149 213.304 313.72 214.682 313.72 216.12V241.28H296.49V216.12C296.49 214.682 297.061 213.304 298.077 212.287C299.094 211.271 300.473 210.7 301.91 210.7V210.7Z" fill="#8DAFFF" stroke="#263238" stroke-linecap="round" stroke-linejoin="round"/>
<path d="M309 204.03H301.91V210.7H309V204.03Z" fill="#263238" stroke="#263238" stroke-linecap="round" stroke-linejoin="round"/>
<path d="M309 217.92H297.88V235.71H309V217.92Z" fill="white" stroke="#263238" stroke-linecap="round" stroke-linejoin="round"/>
<path d="M45.0001 387.42H51.3901C52.8276 387.42 54.2062 387.991 55.2226 389.007C56.2391 390.024 56.8101 391.402 56.8101 392.84V411.32H39.6001V392.84C39.6001 391.406 40.1684 390.03 41.1805 389.014C42.1926 387.999 43.5661 387.425 45.0001 387.42V387.42Z" fill="#8DAFFF" stroke="#263238" stroke-linecap="round" stroke-linejoin="round"/>
<path d="M52.11 380.75H45.02V387.42H52.11V380.75Z" fill="#263238" stroke="#263238" stroke-linecap="round" stroke-linejoin="round"/>
<path d="M52.11 394.64H40.99V405.76H52.11V394.64Z" fill="white" stroke="#263238" stroke-linecap="round" stroke-linejoin="round"/>
<path d="M65.3099 387.42H71.6999C73.1374 387.42 74.516 387.991 75.5324 389.007C76.5489 390.024 77.1199 391.402 77.1199 392.84V411.32H59.8899V392.84C59.8899 392.128 60.0301 391.423 60.3025 390.766C60.5748 390.108 60.9741 389.511 61.4774 389.007C61.9807 388.504 62.5782 388.105 63.2357 387.832C63.8933 387.56 64.5981 387.42 65.3099 387.42V387.42Z" fill="#8DAFFF" stroke="#263238" stroke-linecap="round" stroke-linejoin="round"/>
<path d="M72.4001 380.75H65.3101V387.42H72.4001V380.75Z" fill="#263238" stroke="#263238" stroke-linecap="round" stroke-linejoin="round"/>
<path d="M72.4 394.64H61.28V405.76H72.4V394.64Z" fill="white" stroke="#263238" stroke-linecap="round" stroke-linejoin="round"/>
<path d="M85.5999 374.63H91.9999C93.4374 374.63 94.816 375.201 95.8325 376.217C96.8489 377.234 97.4199 378.613 97.4199 380.05V411.32H80.1799V380.05C80.1799 378.613 80.751 377.234 81.7674 376.217C82.7839 375.201 84.1625 374.63 85.5999 374.63V374.63Z" fill="#8DAFFF" stroke="#263238" stroke-linecap="round" stroke-linejoin="round"/>
<path d="M92.6901 367.96H85.6001V374.63H92.6901V367.96Z" fill="#263238" stroke="#263238" stroke-linecap="round" stroke-linejoin="round"/>
<path d="M92.6901 381.86H81.5701V405.76H92.6901V381.86Z" fill="white" stroke="#263238" stroke-linecap="round" stroke-linejoin="round"/>
<path d="M105.89 387.42H112.28C113.717 387.42 115.096 387.991 116.112 389.007C117.129 390.024 117.7 391.402 117.7 392.84V411.32H100.47V392.84C100.47 391.402 101.041 390.024 102.057 389.007C103.074 387.991 104.452 387.42 105.89 387.42V387.42Z" fill="#8DAFFF" stroke="#263238" stroke-linecap="round" stroke-linejoin="round"/>
<path d="M112.98 380.75H105.89V387.42H112.98V380.75Z" fill="#263238" stroke="#263238" stroke-linecap="round" stroke-linejoin="round"/>
<path d="M112.98 394.64H101.86V405.76H112.98V394.64Z" fill="white" stroke="#263238" stroke-linecap="round" stroke-linejoin="round"/>
<path d="M126.18 387.42H132.57C134.007 387.42 135.386 387.991 136.403 389.007C137.419 390.024 137.99 391.402 137.99 392.84V411.32H120.76V392.84C120.76 391.402 121.331 390.024 122.347 389.007C123.364 387.991 124.743 387.42 126.18 387.42V387.42Z" fill="#8DAFFF" stroke="#263238" stroke-linecap="round" stroke-linejoin="round"/>
<path d="M133.27 380.75H126.18V387.42H133.27V380.75Z" fill="#263238" stroke="#263238" stroke-linecap="round" stroke-linejoin="round"/>
<path d="M133.27 394.64H122.15V405.76H133.27V394.64Z" fill="white" stroke="#263238" stroke-linecap="round" stroke-linejoin="round"/>
<path d="M146.48 380.75H152.87C154.308 380.75 155.686 381.321 156.703 382.338C157.719 383.354 158.29 384.733 158.29 386.17V411.33H141.05V386.17C141.05 385.457 141.191 384.752 141.464 384.094C141.737 383.435 142.137 382.837 142.641 382.334C143.145 381.831 143.744 381.431 144.403 381.16C145.062 380.888 145.767 380.749 146.48 380.75V380.75Z" fill="#8DAFFF" stroke="#263238" stroke-linecap="round" stroke-linejoin="round"/>
<path d="M153.57 374.08H146.48V380.75H153.57V374.08Z" fill="#263238" stroke="#263238" stroke-linecap="round" stroke-linejoin="round"/>
<path d="M153.56 387.97H142.44V405.76H153.56V387.97Z" fill="white" stroke="#263238" stroke-linecap="round" stroke-linejoin="round"/>
<path d="M200.45 387.42H206.84C208.277 387.42 209.656 387.991 210.673 389.007C211.689 390.024 212.26 391.403 212.26 392.84V411.32H195V392.84C195 392.126 195.141 391.418 195.415 390.759C195.69 390.099 196.092 389.501 196.598 388.997C197.105 388.493 197.706 388.095 198.367 387.824C199.028 387.553 199.736 387.416 200.45 387.42V387.42Z" fill="#8DAFFF" stroke="#263238" stroke-linecap="round" stroke-linejoin="round"/>
<path d="M207.54 380.75H200.45V387.42H207.54V380.75Z" fill="#263238" stroke="#263238" stroke-linecap="round" stroke-linejoin="round"/>
<path d="M207.54 394.64H196.42V405.76H207.54V394.64Z" fill="white" stroke="#263238" stroke-linecap="round" stroke-linejoin="round"/>
<path d="M220.74 387.42H227.13C228.568 387.42 229.946 387.991 230.963 389.007C231.979 390.024 232.55 391.402 232.55 392.84V411.32H215.32V392.84C215.32 391.402 215.891 390.024 216.908 389.007C217.924 387.991 219.303 387.42 220.74 387.42V387.42Z" fill="#8DAFFF" stroke="#263238" stroke-linecap="round" stroke-linejoin="round"/>
<path d="M227.83 380.75H220.74V387.42H227.83V380.75Z" fill="#263238" stroke="#263238" stroke-linecap="round" stroke-linejoin="round"/>
<path d="M227.83 394.64H216.71V405.76H227.83V394.64Z" fill="white" stroke="#263238" stroke-linecap="round" stroke-linejoin="round"/>
<path d="M241 374.63H247.39C248.827 374.63 250.206 375.201 251.222 376.217C252.239 377.234 252.81 378.613 252.81 380.05V411.32H235.62V380.05C235.62 378.619 236.185 377.247 237.193 376.232C238.201 375.216 239.569 374.641 241 374.63V374.63Z" fill="#8DAFFF" stroke="#263238" stroke-linecap="round" stroke-linejoin="round"/>
<path d="M248.13 367.96H241.04V374.63H248.13V367.96Z" fill="#263238" stroke="#263238" stroke-linecap="round" stroke-linejoin="round"/>
<path d="M248.13 381.86H237.01V405.76H248.13V381.86Z" fill="white" stroke="#263238" stroke-linecap="round" stroke-linejoin="round"/>
<path d="M261.33 387.42H267.72C268.432 387.42 269.136 387.56 269.794 387.832C270.452 388.105 271.049 388.504 271.552 389.007C272.056 389.511 272.455 390.108 272.727 390.766C273 391.423 273.14 392.128 273.14 392.84V411.32H255.91V392.84C255.91 391.402 256.481 390.024 257.497 389.007C258.514 387.991 259.892 387.42 261.33 387.42V387.42Z" fill="#8DAFFF" stroke="#263238" stroke-linecap="round" stroke-linejoin="round"/>
<path d="M268.42 380.75H261.33V387.42H268.42V380.75Z" fill="#263238" stroke="#263238" stroke-linecap="round" stroke-linejoin="round"/>
<path d="M268.42 394.64H257.3V405.76H268.42V394.64Z" fill="white" stroke="#263238" stroke-linecap="round" stroke-linejoin="round"/>
<path d="M281.62 387.42H288C288.712 387.42 289.417 387.56 290.074 387.832C290.732 388.105 291.329 388.504 291.832 389.007C292.336 389.511 292.735 390.108 293.007 390.766C293.28 391.423 293.42 392.128 293.42 392.84V411.32H276.2V392.84C276.2 391.402 276.771 390.024 277.787 389.007C278.804 387.991 280.182 387.42 281.62 387.42V387.42Z" fill="#8DAFFF" stroke="#263238" stroke-linecap="round" stroke-linejoin="round"/>
<path d="M288.71 380.75H281.62V387.42H288.71V380.75Z" fill="#263238" stroke="#263238" stroke-linecap="round" stroke-linejoin="round"/>
<path d="M288.71 394.64H277.59V405.76H288.71V394.64Z" fill="white" stroke="#263238" stroke-linecap="round" stroke-linejoin="round"/>
<path d="M301.91 380.75H308.3C309.737 380.75 311.116 381.321 312.133 382.337C313.149 383.354 313.72 384.733 313.72 386.17V411.33H296.49V386.17C296.49 384.733 297.061 383.354 298.077 382.337C299.094 381.321 300.473 380.75 301.91 380.75V380.75Z" fill="#8DAFFF" stroke="#263238" stroke-linecap="round" stroke-linejoin="round"/>
<path d="M309 374.08H301.91V380.75H309V374.08Z" fill="#263238" stroke="#263238" stroke-linecap="round" stroke-linejoin="round"/>
<path d="M309 387.97H297.88V405.76H309V387.97Z" fill="white" stroke="#263238" stroke-linecap="round" stroke-linejoin="round"/>
<path d="M56.9101 263.41H41.0601L45.0201 297.43H52.9501L56.9101 263.41Z" fill="white" stroke="#263238" stroke-linecap="round" stroke-linejoin="round"/>
<path d="M44.3899 292.02L45.0199 297.43H52.9499L53.5799 292.02H44.3899Z" fill="#263238" stroke="#263238" stroke-linecap="round" stroke-linejoin="round"/>
<path d="M51.8801 269.98H45.3101V286.22H51.8801V269.98Z" fill="#8DAFFF" stroke="#263238" stroke-linecap="round" stroke-linejoin="round"/>
<path d="M76.2499 263.41H60.3899L64.3599 297.43H72.2799L76.2499 263.41Z" fill="white" stroke="#263238" stroke-linecap="round" stroke-linejoin="round"/>
<path d="M63.73 292.02L64.36 297.43H72.28L72.91 292.02H63.73Z" fill="#263238" stroke="#263238" stroke-linecap="round" stroke-linejoin="round"/>
<path d="M71.2199 269.98H64.6499V286.22H71.2199V269.98Z" fill="#8DAFFF" stroke="#263238" stroke-linecap="round" stroke-linejoin="round"/>
<path d="M95.58 263.41H79.72L83.69 297.43H91.61L95.58 263.41Z" fill="white" stroke="#263238" stroke-linecap="round" stroke-linejoin="round"/>
<path d="M83.0601 292.02L83.6901 297.43H91.6101L92.2501 292.02H83.0601Z" fill="#263238" stroke="#263238" stroke-linecap="round" stroke-linejoin="round"/>
<path d="M90.55 269.98H83.98V286.22H90.55V269.98Z" fill="#8DAFFF" stroke="#263238" stroke-linecap="round" stroke-linejoin="round"/>
<path d="M114.91 263.41H99.0601L103.02 297.43H110.95L114.91 263.41Z" fill="white" stroke="#263238" stroke-linecap="round" stroke-linejoin="round"/>
<path d="M102.39 292.02L103.02 297.43H110.95L111.58 292.02H102.39Z" fill="#263238" stroke="#263238" stroke-linecap="round" stroke-linejoin="round"/>
<path d="M109.88 269.98H103.31V286.22H109.88V269.98Z" fill="#8DAFFF" stroke="#263238" stroke-linecap="round" stroke-linejoin="round"/>
<path d="M136.34 279.26H119.58V285.06H136.34V279.26Z" fill="#263238" stroke="#263238" stroke-linecap="round" stroke-linejoin="round"/>
<path d="M138.89 285.06H117.04V297.82H138.89V285.06Z" fill="#8DAFFF" stroke="#263238" stroke-linecap="round" stroke-linejoin="round"/>
<path d="M135.81 287.77H120.1V295.12H135.81V287.77Z" fill="white" stroke="#263238" stroke-linecap="round" stroke-linejoin="round"/>
<path d="M161.09 279.26H144.33V285.06H161.09V279.26Z" fill="#263238" stroke="#263238" stroke-linecap="round" stroke-linejoin="round"/>
<path d="M163.63 285.06H141.78V297.82H163.63V285.06Z" fill="#8DAFFF" stroke="#263238" stroke-linecap="round" stroke-linejoin="round"/>
<path d="M160.56 287.77H144.85V295.12H160.56V287.77Z" fill="white" stroke="#263238" stroke-linecap="round" stroke-linejoin="round"/>
<path d="M211.57 263.41H195.72L199.68 297.43H207.61L211.57 263.41Z" fill="white" stroke="#263238" stroke-linecap="round" stroke-linejoin="round"/>
<path d="M199.05 292.02L199.68 297.43H207.61L208.24 292.02H199.05Z" fill="#263238" stroke="#263238" stroke-linecap="round" stroke-linejoin="round"/>
<path d="M206.54 269.98H199.97V286.22H206.54V269.98Z" fill="#8DAFFF" stroke="#263238" stroke-linecap="round" stroke-linejoin="round"/>
<path d="M230.91 263.41H215.05L219.02 297.43H226.94L230.91 263.41Z" fill="white" stroke="#263238" stroke-linecap="round" stroke-linejoin="round"/>
<path d="M218.39 292.02L219.02 297.43H226.94L227.57 292.02H218.39Z" fill="#263238" stroke="#263238" stroke-linecap="round" stroke-linejoin="round"/>
<path d="M225.88 269.98H219.31V286.22H225.88V269.98Z" fill="#8DAFFF" stroke="#263238" stroke-linecap="round" stroke-linejoin="round"/>
<path d="M250.24 263.41H234.39L238.35 297.43H246.28L250.24 263.41Z" fill="white" stroke="#263238" stroke-linecap="round" stroke-linejoin="round"/>
<path d="M237.72 292.02L238.35 297.43H246.28L246.91 292.02H237.72Z" fill="#263238" stroke="#263238" stroke-linecap="round" stroke-linejoin="round"/>
<path d="M245.21 269.98H238.64V286.22H245.21V269.98Z" fill="#8DAFFF" stroke="#263238" stroke-linecap="round" stroke-linejoin="round"/>
<path d="M269.57 263.41H253.72L257.68 297.43H265.61L269.57 263.41Z" fill="white" stroke="#263238" stroke-linecap="round" stroke-linejoin="round"/>
<path d="M257.05 292.02L257.68 297.43H265.61L266.24 292.02H257.05Z" fill="#263238" stroke="#263238" stroke-linecap="round" stroke-linejoin="round"/>
<path d="M264.54 269.98H257.97V286.22H264.54V269.98Z" fill="#8DAFFF" stroke="#263238" stroke-linecap="round" stroke-linejoin="round"/>
<path d="M291 279.26H274.24V285.06H291V279.26Z" fill="#263238" stroke="#263238" stroke-linecap="round" stroke-linejoin="round"/>
<path d="M293.55 285.06H271.7V297.82H293.55V285.06Z" fill="#8DAFFF" stroke="#263238" stroke-linecap="round" stroke-linejoin="round"/>
<path d="M290.48 287.77H274.77V295.12H290.48V287.77Z" fill="white" stroke="#263238" stroke-linecap="round" stroke-linejoin="round"/>
<path d="M315.75 279.26H298.99V285.06H315.75V279.26Z" fill="#263238" stroke="#263238" stroke-linecap="round" stroke-linejoin="round"/>
<path d="M318.29 285.06H296.44V297.82H318.29V285.06Z" fill="#8DAFFF" stroke="#263238" stroke-linecap="round" stroke-linejoin="round"/>
<path d="M315.22 287.77H299.51V295.12H315.22V287.77Z" fill="white" stroke="#263238" stroke-linecap="round" stroke-linejoin="round"/>
<path d="M336.09 191.56V184.32L34.2701 184.32V191.56L336.09 191.56Z" fill="white" stroke="#263238" stroke-linecap="round" stroke-linejoin="round"/>
<path d="M336.1 248.01V240.77L34.2801 240.77V248.01L336.1 248.01Z" fill="white" stroke="#263238" stroke-linecap="round" stroke-linejoin="round"/>
<path d="M336.09 304.47V297.23H34.2701V304.47H336.09Z" fill="white" stroke="#263238" stroke-linecap="round" stroke-linejoin="round"/>
<path d="M336.09 360.93V353.69H34.2701V360.93H336.09Z" fill="white" stroke="#263238" stroke-linecap="round" stroke-linejoin="round"/>
<path d="M336.1 416.78V409.54H34.2801V416.78H336.1Z" fill="white" stroke="#263238" stroke-linecap="round" stroke-linejoin="round"/>
<path d="M35.72 141.62H28.48V434.03H35.72V141.62Z" fill="white" stroke="#263238" stroke-linecap="round" stroke-linejoin="round"/>
<path d="M187.72 141.62H180.48V434.03H187.72V141.62Z" fill="white" stroke="#263238" stroke-linecap="round" stroke-linejoin="round"/>
<path d="M339.72 141.62H332.48V434.03H339.72V141.62Z" fill="white" stroke="#263238" stroke-linecap="round" stroke-linejoin="round"/>
<path d="M342.61 111.22H21.24V142.34H342.61V111.22Z" fill="#4154F1" stroke="#263238" stroke-linecap="round" stroke-linejoin="round"/>
<path d="M248.52 111.22H115.34V142.34H248.52V111.22Z" fill="white" stroke="#263238" stroke-linecap="round" stroke-linejoin="round"/>
<path d="M77.45 123.14H70.72V116.4H63.78V123.14H57.04V130.08H63.78V136.81H70.72V130.08H77.45V123.14Z" fill="white"/>
<path d="M304.83 123.14H298.1V116.4H291.16V123.14H284.42V130.08H291.16V136.81H298.1V130.08H304.83V123.14Z" fill="white"/>
<path d="M136.18 116C139.62 116 141.09 118 141.09 121.35V124C141.09 127.47 139.47 129.28 135.99 129.28H133.84V137.92H131.4V116H136.18ZM136 127.07C137.82 127.07 138.69 126.23 138.69 124.13V121.22C138.69 119.22 137.97 118.22 136.19 118.22H133.85V127.07H136Z" fill="#8DAFFF"/>
<path d="M145.54 128V137.86H143.1V116H145.54V125.85H150.92V116H153.36V137.9H150.92V128H145.54Z" fill="#8DAFFF"/>
<path d="M158.33 133.49L157.49 137.9H155.24L159.43 116H163L167.19 137.9H164.75L163.91 133.49H158.33ZM158.65 131.39H163.53L161.05 118.75L158.65 131.39Z" fill="#8DAFFF"/>
<path d="M173.94 116C177.39 116 178.82 117.75 178.82 121V122.79C178.82 125.2 177.98 126.7 176.1 127.29C178.1 127.89 178.86 129.51 178.86 131.86V135.27C178.788 136.169 178.936 137.071 179.29 137.9H176.82C176.48 137.057 176.343 136.146 176.42 135.24V131.8C176.42 129.33 175.26 128.54 173.23 128.54H171.5V137.9H169.07V116H173.94ZM173.32 126.32C175.26 126.32 176.42 125.7 176.42 123.32V121.22C176.42 119.22 175.7 118.22 173.88 118.22H171.5V126.32H173.32Z" fill="#8DAFFF"/>
<path d="M189.46 137.87H187.12L183.49 120.44V137.9H181.36V116H184.77L188.37 133.49L191.84 116H195.25V137.9H192.94V120.29L189.46 137.87Z" fill="#8DAFFF"/>
<path d="M200.23 133.49L199.38 137.9H197.13L201.32 116H204.86L209.05 137.9H206.61L205.76 133.49H200.23ZM200.54 131.39H205.42L203 118.75L200.54 131.39Z" fill="#8DAFFF"/>
<path d="M220.62 121.29V123.29H218.31V121.19C218.31 119.19 217.53 118.03 215.74 118.03C213.95 118.03 213.18 119.22 213.18 121.19V132.77C213.18 134.77 213.99 135.92 215.74 135.92C217.49 135.92 218.31 134.74 218.31 132.77V129.92H220.62V132.64C220.62 135.96 219.06 138.15 215.68 138.15C212.3 138.15 210.77 135.96 210.77 132.64V121.29C210.77 117.97 212.33 115.78 215.68 115.78C219.03 115.78 220.62 118 220.62 121.29Z" fill="#8DAFFF"/>
<path d="M226.38 130L221.75 116H224.29L227.7 126.76L231.14 116H233.45L228.79 130V137.86H226.38V130Z" fill="#8DAFFF"/>
<path d="M464.28 138.33H358.31V296.41H464.28V138.33Z" stroke="#263238" stroke-linecap="round" stroke-linejoin="round"/>
<path d="M426.35 178.52L390.16 200.91C388.317 202.051 386.267 202.818 384.128 203.167C381.989 203.515 379.801 203.439 377.691 202.942C375.582 202.446 373.59 201.538 371.831 200.271C370.072 199.004 368.58 197.404 367.44 195.56V195.56C365.138 191.839 364.409 187.356 365.412 183.097C366.416 178.838 369.069 175.152 372.79 172.85L409 150.45C412.723 148.148 417.207 147.418 421.467 148.422C425.728 149.425 429.416 152.079 431.72 155.8V155.8C432.86 157.644 433.626 159.695 433.973 161.835C434.32 163.975 434.242 166.163 433.744 168.273C433.245 170.383 432.335 172.374 431.067 174.132C429.798 175.89 428.195 177.381 426.35 178.52V178.52Z" stroke="#263238" stroke-linecap="round" stroke-linejoin="round"/>
<path d="M409 150.45L390.54 161.88L407.91 189.94L426.37 178.52C428.213 177.379 429.814 175.887 431.08 174.128C432.346 172.369 433.254 170.378 433.75 168.268C434.247 166.158 434.324 163.971 433.975 161.832C433.627 159.693 432.861 157.643 431.72 155.8C430.58 153.957 429.087 152.356 427.328 151.09C425.569 149.824 423.578 148.916 421.468 148.42C419.358 147.923 417.171 147.846 415.032 148.195C412.893 148.543 410.843 149.309 409 150.45V150.45Z" stroke="#263238" stroke-linecap="round" stroke-linejoin="round"/>
<path d="M436.84 247.77L396.64 233.77C394.593 233.06 392.705 231.953 391.086 230.513C389.467 229.073 388.147 227.328 387.202 225.378C386.258 223.428 385.707 221.31 385.581 219.147C385.456 216.983 385.758 214.817 386.47 212.77C387.18 210.723 388.287 208.835 389.727 207.216C391.167 205.597 392.912 204.277 394.862 203.332C396.813 202.388 398.93 201.837 401.093 201.711C403.257 201.586 405.423 201.888 407.47 202.6L447.67 216.6C451.803 218.036 455.197 221.056 457.104 224.994C459.011 228.932 459.276 233.467 457.84 237.6V237.6C456.404 241.733 453.384 245.127 449.446 247.034C445.508 248.941 440.973 249.206 436.84 247.77V247.77Z" stroke="#263238" stroke-linecap="round" stroke-linejoin="round"/>
<path d="M447.67 216.59L427.16 209.46L416.33 240.64L436.84 247.77C440.975 249.206 445.511 248.941 449.45 247.033C453.389 245.125 456.409 241.73 457.845 237.595C459.281 233.46 459.016 228.924 457.108 224.985C455.2 221.046 451.805 218.026 447.67 216.59V216.59Z" stroke="#263238" stroke-linecap="round" stroke-linejoin="round"/>
<path d="M442.67 261.67H447.78" stroke="#263238" stroke-linecap="round" stroke-linejoin="round"/>
<path d="M373.95 261.67H437.03" stroke="#263238" stroke-linecap="round" stroke-linejoin="round"/>
<path d="M373.95 272.96H447.78" stroke="#263238" stroke-linecap="round" stroke-linejoin="round"/>
<path d="M386.57 284.26H447.78" stroke="#263238" stroke-linecap="round" stroke-linejoin="round"/>
<path d="M373.95 284.26H379.16" stroke="#263238" stroke-linecap="round" stroke-linejoin="round"/>
<path d="M419.38 246.91H424.33" stroke="#263238" stroke-linecap="round" stroke-linejoin="round"/>
<path d="M371.34 208.69V246.91H413.03" stroke="#263238" stroke-linecap="round" stroke-linejoin="round"/>
<path d="M441.26 151.74H436.49" stroke="#263238" stroke-linecap="round" stroke-linejoin="round"/>
<path d="M452.99 213.03V151.74H446.9" stroke="#263238" stroke-linecap="round" stroke-linejoin="round"/>
<path d="M398.27 151.36H370.47V169.6" stroke="#263238" stroke-linecap="round" stroke-linejoin="round"/>
<path d="M295.4 273.88C291.5 278.18 277.09 278.79 264.45 278.74C251.81 278.69 235.75 271.55 230.38 263.88C225.01 256.21 235.85 240.56 237.75 236.93C239.65 233.3 240.41 215.47 251.3 210.24C262.19 205.01 285.12 207.73 292.57 213.24C300.02 218.75 315.72 228.38 318.28 237.91C320.84 247.44 311.91 247.55 311.15 248.01C310.39 248.47 309.15 248.92 307.23 252.56C306.647 253.624 305.803 254.522 304.779 255.171C303.754 255.819 302.581 256.198 301.37 256.27L295.4 273.88Z" fill="#263238" stroke="#263238" stroke-linecap="round" stroke-linejoin="round"/>
<path d="M307.17 235C314.41 236.91 319.17 239.24 315.56 241.78" stroke="#545454" stroke-linecap="round" stroke-linejoin="round"/>
<path d="M278 230C278 230 292.28 231.57 303.53 234.08" stroke="#545454" stroke-linecap="round" stroke-linejoin="round"/>
<path d="M271.84 227.66C271.84 227.66 290.17 221.55 307.57 229.07" stroke="#545454" stroke-linecap="round" stroke-linejoin="round"/>
<path d="M293.15 219.27C294.055 219.499 294.944 219.79 295.81 220.14" stroke="#545454" stroke-linecap="round" stroke-linejoin="round"/>
<path d="M265.26 225.78C265.26 225.78 276.33 218.19 288.09 218.57" stroke="#545454" stroke-linecap="round" stroke-linejoin="round"/>
<path d="M236.9 262.44C235.584 262.91 234.219 263.226 232.83 263.38" stroke="#545454" stroke-linecap="round" stroke-linejoin="round"/>
<path d="M270 235.65C270 235.65 256.84 248.81 248.38 255.86C245.929 257.931 243.224 259.682 240.33 261.07" stroke="#545454" stroke-linecap="round" stroke-linejoin="round"/>
<path d="M261.5 232.83C261.5 232.83 247.87 248.34 235.65 253" stroke="#545454" stroke-linecap="round" stroke-linejoin="round"/>
<path d="M387 413.52C387 413.52 391.71 417.77 392.33 418.98C392.95 420.19 395.26 425.35 394.41 425.48C393.56 425.61 391.51 422.32 390.9 420.94C390.29 419.56 387.9 415.94 387.9 415.94L387 413.52Z" fill="white" stroke="#263238" stroke-linecap="round" stroke-linejoin="round"/>
<path d="M384.05 410.53C384.05 410.53 387.3 413.53 387.92 414.74C388.54 415.95 391.44 426.87 391.44 426.87C391.44 426.87 390.04 427.99 389.06 427.45C388.08 426.91 384.65 416.12 384.65 416.12L384.05 410.53Z" fill="white" stroke="#263238" stroke-linecap="round" stroke-linejoin="round"/>
<path d="M376.66 405.82C376.66 405.82 382.6 408.95 384.05 410.53C385.5 412.11 387.8 425.2 388.26 426.4C388.72 427.6 385.97 428.49 385.32 427.96C384.67 427.43 382 416 382 416L376.64 407.34L376.66 405.82Z" fill="white" stroke="#263238" stroke-linecap="round" stroke-linejoin="round"/>
<path d="M362.56 404.37L373.8 404.59C374.757 404.611 375.697 404.853 376.545 405.297C377.393 405.741 378.127 406.375 378.69 407.15L383.41 413.71L384.22 426.76C384.227 426.923 384.2 427.086 384.142 427.238C384.083 427.39 383.994 427.529 383.879 427.645C383.765 427.761 383.628 427.853 383.477 427.914C383.325 427.975 383.163 428.004 383 428C382.748 427.985 382.507 427.892 382.31 427.735C382.113 427.577 381.97 427.362 381.9 427.12L378.63 415.32L374.34 413.32C374.34 413.32 367.77 416.92 367.91 417.6C368.05 418.28 371.73 422.83 372.53 423.87C373.33 424.91 375.28 426.69 374.73 427.68C374.18 428.67 370.85 427.68 369.73 426.95C368.61 426.22 362.5 418.54 360.21 416.95C357.92 415.36 355.46 413.7 355.46 413.7L362.56 404.37Z" fill="white" stroke="#263238" stroke-linecap="round" stroke-linejoin="round"/>
<path d="M360.55 407.39L359.02 415.84L356.46 413.79L360.55 407.39Z" fill="#263238" stroke="#263238" stroke-linecap="round" stroke-linejoin="round"/>
<path d="M312 298.09C312 298.09 322.11 300.79 323.53 307.39C324.95 313.99 331.2 379 331.2 379L364.7 400.77L354.56 416.42L322.75 410.17L304.12 296L312 298.09Z" fill="white" stroke="#263238" stroke-linecap="round" stroke-linejoin="round"/>
<path d="M331.2 379C331.2 379 326.77 381.34 325.2 383.44" stroke="#263238" stroke-linecap="round" stroke-linejoin="round"/>
<path d="M317.5 313.27L326.44 433.41L213.53 428.81C213.53 428.81 216.71 304.69 218.07 302.03C219.43 299.37 230.39 298.1 239.44 295.26C248.49 292.42 264.63 287 264.63 287L285.87 287.9C291.81 288.16 316.36 299.63 316.32 300.62" fill="white"/>
<path d="M317.5 313.27L326.44 433.41L213.53 428.81C213.53 428.81 216.71 304.69 218.07 302.03C219.43 299.37 230.39 298.1 239.44 295.26C248.49 292.42 264.63 287 264.63 287L285.87 287.9C291.81 288.16 316.36 299.63 316.32 300.62" stroke="#263238" stroke-linecap="round" stroke-linejoin="round"/>
<path d="M318.53 336.98H307.32V341.32H318.53V336.98Z" fill="#263238" stroke="#263238" stroke-linecap="round" stroke-linejoin="round"/>
<path d="M252.72 291.87L253.78 336.3L266.54 339.33L259.35 350.67L277.28 400.54" fill="white"/>
<path d="M252.72 291.87L253.78 336.3L266.54 339.33L259.35 350.67L277.28 400.54" stroke="#263238" stroke-linecap="round" stroke-linejoin="round"/>
<path d="M290.77 289.3C290.77 289.3 302.6 313.86 305.97 321.94C309.34 330.02 310.72 332.56 310.72 332.56L302.28 338.4L310.91 345.22L302.84 388.5" fill="white"/>
<path d="M290.77 289.3C290.77 289.3 302.6 313.86 305.97 321.94C309.34 330.02 310.72 332.56 310.72 332.56L302.28 338.4L310.91 345.22L302.84 388.5" stroke="#263238" stroke-linecap="round" stroke-linejoin="round"/>
<path d="M257 290C257 290 274.1 335.91 275.45 350.59C276.8 365.27 280.1 432.37 280.1 432.37L302.1 433.37C302.1 433.37 301.28 366.37 297.9 341.45C294.52 316.53 289.71 295.72 288.83 293.21C288.057 291.312 287.049 289.518 285.83 287.87L272.25 285.87L257 290Z" fill="#4154F1" stroke="#263238" stroke-linecap="round" stroke-linejoin="round"/>
<path d="M298.96 365.08L290.57 382.4" stroke="#263238" stroke-linecap="round" stroke-linejoin="round"/>
<path d="M295.81 365.08L283.75 390.27" stroke="#263238" stroke-linecap="round" stroke-linejoin="round"/>
<path d="M264.1 269.55C264.1 269.55 264.17 285.18 263.85 286.9C263.53 288.62 258.52 288 258.42 290.23C258.32 292.46 265.92 313.52 273.32 320.04C280.72 326.56 283 325.66 285.2 320.55C287.4 315.44 288.05 305.4 288.2 302.18C288.26 300.75 288.56 297.18 288.2 295.44C287.68 292.99 287.02 289.49 284.95 288.07L284.16 287.53L284.49 279.86C284.49 279.86 271.88 278.82 264.1 269.55Z" fill="white" stroke="#263238" stroke-linecap="round" stroke-linejoin="round"/>
<path d="M284.15 287.53L284.48 279.86C284.48 279.86 271.88 278.86 264.1 269.55V269.65L264.62 272.05C264.62 272.05 269.52 286.46 284.94 288.05L284.15 287.53Z" fill="#263238" stroke="#263238" stroke-linecap="round" stroke-linejoin="round"/>
<path d="M276.16 231.64C276.16 231.64 262.16 227.32 261.55 225.31C260.94 223.3 261.61 218.37 259.83 219.31C258.05 220.25 258.29 226.18 260.69 228.02C263.09 229.86 276.37 232.42 277.28 234.44C278.19 236.46 276.88 237.89 272.41 243.65C267.94 249.41 248.49 258 248.4 260C248.31 262 250.53 268 253.99 268.42C256.179 268.611 258.372 268.1 260.25 266.96C262.683 271.584 266.273 275.498 270.67 278.32C277.67 282.59 287.77 284.26 293.9 280.07C297.25 277.77 303.16 266.58 303.61 261.89C304.06 257.2 301.56 251.89 301.61 249.89C301.66 247.89 301.8 245.44 301.8 245.44C301.8 245.44 284.37 235.76 281.98 233.67C280.317 232.371 278.271 231.657 276.16 231.64V231.64Z" fill="white" stroke="#263238" stroke-linecap="round" stroke-linejoin="round"/>
<path d="M273.16 245.4C273.16 245.4 278.16 242.2 283.16 244.71" stroke="#263238" stroke-linecap="round" stroke-linejoin="round"/>
<path d="M292.81 244.94C292.81 244.94 296 243.34 299 247" stroke="#263238" stroke-linecap="round" stroke-linejoin="round"/>
<path d="M290.08 253.57C290.08 253.57 289.69 257.02 290.64 257.81C291.59 258.6 293.56 259.17 292.51 260.62C291.46 262.07 288.22 262.17 286.81 260.37" stroke="#263238" stroke-linecap="round" stroke-linejoin="round"/>
<path d="M294.26 265.9C294.26 265.9 290.17 268.7 283.59 266.18" stroke="#263238" stroke-linecap="round" stroke-linejoin="round"/>
<path d="M279.51 252.94C279.45 254.31 278.62 255.39 277.67 255.34C276.72 255.29 275.98 254.16 276.04 252.79C276.1 251.42 276.92 250.35 277.88 250.39C278.84 250.43 279.57 251.58 279.51 252.94Z" fill="#263238"/>
<path d="M297.08 253.7C297.02 255.07 296.19 256.15 295.24 256.1C294.29 256.05 293.55 254.92 293.61 253.55C293.67 252.18 294.5 251.11 295.45 251.15C296.4 251.19 297.14 252.34 297.08 253.7Z" fill="#263238"/>
<path d="M284.242 247.379L272.153 246.856C270.708 246.793 269.485 247.914 269.422 249.36L269.22 254.026C269.158 255.471 270.279 256.694 271.724 256.757L283.813 257.28C285.259 257.343 286.481 256.222 286.544 254.776L286.746 250.11C286.809 248.665 285.687 247.442 284.242 247.379Z" stroke="#263238" stroke-linecap="round" stroke-linejoin="round"/>
<path d="M302.309 248.17L292.698 247.754C291.252 247.691 290.029 248.813 289.967 250.258L289.765 254.924C289.702 256.369 290.823 257.592 292.269 257.655L301.88 258.071C303.325 258.134 304.548 257.012 304.611 255.567L304.813 250.901C304.875 249.456 303.754 248.233 302.309 248.17Z" stroke="#263238" stroke-linecap="round" stroke-linejoin="round"/>
<path d="M286.82 248.72L289.79 248.85" stroke="#263238" stroke-linecap="round" stroke-linejoin="round"/>
<path d="M269.36 251.19L262.43 250.89" stroke="#263238" stroke-linecap="round" stroke-linejoin="round"/>
<path d="M275.09 398.49C275.09 398.49 282.36 398.17 284.94 397.02C287.52 395.87 305.7 391.02 306.63 391.33C309.733 392.61 312.741 394.11 315.63 395.82C317.1 396.9 320.26 405.51 321.46 408.92C321.607 409.297 321.601 409.717 321.445 410.09C321.288 410.463 320.992 410.761 320.62 410.92V410.92C320.272 411.081 319.877 411.11 319.509 411.002C319.141 410.893 318.825 410.654 318.62 410.33L316 406.13L317.89 413.99C317.994 414.402 317.937 414.838 317.731 415.21C317.525 415.581 317.185 415.86 316.78 415.99V415.99C316.459 416.095 316.113 416.101 315.788 416.006C315.463 415.912 315.175 415.721 314.96 415.46L308.8 407.85L305.8 404.85L312.1 416.55C312.214 416.764 312.276 417.003 312.28 417.246C312.285 417.489 312.232 417.729 312.125 417.947C312.019 418.166 311.863 418.356 311.669 418.503C311.475 418.649 311.249 418.747 311.01 418.79C310.772 418.83 310.527 418.814 310.296 418.743C310.065 418.671 309.854 418.547 309.68 418.38C307.87 416.62 302.27 411.17 301.78 410.38C300.772 409.184 299.658 408.083 298.45 407.09L304.57 418.71C304.682 418.871 304.758 419.055 304.793 419.248C304.827 419.441 304.82 419.64 304.77 419.83C304.721 420.02 304.631 420.197 304.507 420.349C304.382 420.501 304.226 420.624 304.05 420.71H303.96C301.88 420.79 300.83 419.31 299.34 417.85L292.9 411.55C292.9 411.55 283.03 413.64 280.22 412.89C277.41 412.14 271 407.13 271 407.13L275.09 398.49Z" fill="white" stroke="#263238" stroke-linecap="round" stroke-linejoin="round"/>
<path d="M275.09 398.49L274.81 409.69L270.93 407.14L275.09 398.49Z" fill="#263238" stroke="#263238" stroke-linecap="round" stroke-linejoin="round"/>
<path d="M315.96 406.13L313.75 401.66L305.95 395.96" fill="white"/>
<path d="M315.96 406.13L313.75 401.66L305.95 395.96" stroke="#263238" stroke-linecap="round" stroke-linejoin="round"/>
<path d="M305.73 404.86L302.19 401.16" stroke="#263238" stroke-linecap="round" stroke-linejoin="round"/>
<path d="M228.59 299.31C228.59 299.31 218.83 298.89 216.15 302.56C213.47 306.23 207.23 393.51 207.38 397.3C207.53 401.09 267.69 416.46 267.69 416.46L276.38 397.91L240.45 376.65L242.54 327.05" fill="white"/>
<path d="M228.59 299.31C228.59 299.31 218.83 298.89 216.15 302.56C213.47 306.23 207.23 393.51 207.38 397.3C207.53 401.09 267.69 416.46 267.69 416.46L276.38 397.91L240.45 376.65L242.54 327.05" stroke="#263238" stroke-linecap="round" stroke-linejoin="round"/>
<path d="M224.46 377.15C224.46 377.15 233.88 372.47 240.46 376.65" stroke="#263238" stroke-linecap="round" stroke-linejoin="round"/>
<path d="M228.18 380.1C231.139 378.312 234.523 377.352 237.98 377.32" stroke="#263238" stroke-linecap="round" stroke-linejoin="round"/>
<path d="M223.49 384.73C223.71 384.34 223.961 383.969 224.24 383.62" stroke="#263238" stroke-linecap="round" stroke-linejoin="round"/>
<path d="M457.6 402.48C457.6 402.48 453.13 396.8 453.13 393.35C453.13 389.9 456.58 394.98 456.58 394.98C456.58 394.98 449.28 381.59 449.89 376.11C450.5 370.63 455.97 385.65 455.97 385.65C455.97 385.65 454.15 354.82 457.19 355.83C460.23 356.84 464.09 385.83 464.09 387.68C464.09 389.53 466.72 374.9 468.75 379.16C470.78 383.42 470.75 393.56 470.75 393.56C470.75 393.56 473.39 378.14 475.42 383.42C477.45 388.7 473 402.68 473 402.68" fill="#8DAFFF"/>
<path d="M478.09 407.17H453.4V427.66H478.09V407.17Z" stroke="#263238" stroke-linecap="round" stroke-linejoin="round"/>
<path d="M478.29 414.27V402.62H453.29V416C453.29 416.796 453.606 417.559 454.169 418.121C454.731 418.684 455.494 419 456.29 419H456.45C457.246 419 458.009 418.684 458.571 418.121C459.134 417.559 459.45 416.796 459.45 416V414.31H459.61V416C459.61 416.796 459.926 417.559 460.489 418.121C461.051 418.684 461.814 419 462.61 419H462.77C463.566 419 464.329 418.684 464.891 418.121C465.454 417.559 465.77 416.796 465.77 416V414.31H465.93V416C465.93 416.796 466.246 417.559 466.809 418.121C467.371 418.684 468.134 419 468.93 419H469.08C469.876 419 470.639 418.684 471.201 418.121C471.764 417.559 472.08 416.796 472.08 416V414.31H472.24V416C472.24 416.796 472.556 417.559 473.119 418.121C473.681 418.684 474.444 419 475.24 419H475.39C476.186 419 476.949 418.684 477.511 418.121C478.074 417.559 478.39 416.796 478.39 416V414.31L478.29 414.27Z" fill="white" stroke="#263238" stroke-linecap="round" stroke-linejoin="round"/>
<path d="M178.21 412.37V403.76H159.39V412.05L178.21 412.37Z" fill="#BFBFBF" stroke="#263238" stroke-linecap="round" stroke-linejoin="round"/>
<path d="M159.39 403.76L157.48 399.29C161.211 398.95 164.972 399.165 168.64 399.93C172.046 400.58 175.296 401.881 178.21 403.76H159.39Z" fill="white" stroke="#263238" stroke-linecap="round" stroke-linejoin="round"/>
<path d="M157.48 399.29C157.48 399.29 151.1 399.61 147.59 404.08C145.406 407.067 144.081 410.594 143.76 414.28L159.39 412.05V403.76L157.48 399.29Z" fill="white" stroke="#263238" stroke-linecap="round" stroke-linejoin="round"/>
<path d="M154.29 406.63V413L149.5 413.32C149.37 411.558 149.715 409.793 150.5 408.21C150.823 407.524 151.39 406.982 152.091 406.69C152.791 406.398 153.575 406.377 154.29 406.63V406.63Z" fill="white" stroke="#263238" stroke-linecap="round" stroke-linejoin="round"/>
<path d="M158.75 431.19H148.87L142.49 420.02L154.93 416.84L158.75 431.19Z" fill="white" stroke="#263238" stroke-linecap="round" stroke-linejoin="round"/>
<path d="M201.81 419.07L195.43 431.19H158.75L153.33 420.66L201.81 419.07Z" fill="#A6A6A6" stroke="#263238" stroke-linecap="round" stroke-linejoin="round"/>
<path d="M153.34 420.67H203.73V411.74H153.34V420.67Z" fill="#BFBFBF" stroke="#263238" stroke-linecap="round" stroke-linejoin="round"/>
<path d="M153.33 411.73L141.53 415.88V421.3L153.33 420.66V411.73Z" fill="white" stroke="#263238" stroke-linecap="round" stroke-linejoin="round"/>
<path d="M284.12 425.37L348.71 424.39L355.33 423.31H422.69L420.48 427.85H282.46L284.12 425.37Z" fill="#263238" stroke="#263238" stroke-linecap="round" stroke-linejoin="round"/>
<path d="M436.79 408.47H353.97L365.58 325.16H448.39L436.79 408.47Z" fill="#263238" stroke="#263238" stroke-linecap="round" stroke-linejoin="round"/>
<path d="M440.49 408.47H357.67L369.28 325.16H452.1L440.49 408.47Z" fill="#3D3D3D" stroke="#263238" stroke-linecap="round" stroke-linejoin="round"/>
<path d="M415.68 382.5H389.71L394.08 351.14H420.05L415.68 382.5Z" fill="#3D3D3D" stroke="#263238" stroke-linecap="round" stroke-linejoin="round"/>
<path d="M394.08 351.14L369.28 325.16H452.1L420.05 351.14H394.08Z" fill="#595959" stroke="#263238" stroke-linecap="round" stroke-linejoin="round"/>
<path d="M389.71 382.5L359.51 408.2L440.49 408.47L415.68 382.5H389.71Z" fill="#2E2E2E" stroke="#263238" stroke-linecap="round" stroke-linejoin="round"/>
<path d="M408.19 388.21C416.772 388.21 423.73 381.253 423.73 372.67C423.73 364.088 416.772 357.13 408.19 357.13C399.607 357.13 392.65 364.088 392.65 372.67C392.65 381.253 399.607 388.21 408.19 388.21Z" fill="#263238" stroke="#263238" stroke-linecap="round" stroke-linejoin="round"/>
<path d="M409.61 364.79H410.61C413.299 364.79 415.878 365.858 417.78 367.76C419.682 369.662 420.75 372.241 420.75 374.93V429.93H399.47V374.93C399.47 372.241 400.538 369.662 402.44 367.76C404.342 365.858 406.921 364.79 409.61 364.79Z" fill="#595959" stroke="#263238" stroke-linecap="round" stroke-linejoin="round"/>
<path d="M420.75 429.92V375.43C420.467 373.059 419.255 370.897 417.378 369.42C415.502 367.944 413.116 367.273 410.745 367.555C408.374 367.838 406.212 369.05 404.735 370.927C403.258 372.803 402.587 375.189 402.87 377.56V429.92H420.75Z" fill="#595959" stroke="#263238" stroke-linecap="round" stroke-linejoin="round"/>
<path d="M413.42 402.67H413.17C411.712 402.67 410.53 403.852 410.53 405.31V414.08C410.53 415.538 411.712 416.72 413.17 416.72H413.42C414.878 416.72 416.06 415.538 416.06 414.08V405.31C416.06 403.852 414.878 402.67 413.42 402.67Z" fill="#263238" stroke="#263238" stroke-linecap="round" stroke-linejoin="round"/>
<path d="M421.17 424.81H382.01V429.92H421.17V424.81Z" fill="#595959" stroke="#263238" stroke-linecap="round" stroke-linejoin="round"/>
<path d="M488.35 427.79H19.8501V436.73H488.35V427.79Z" fill="#263238" stroke="#263238" stroke-linecap="round" stroke-linejoin="round"/>
</svg>
